# xmcd
#
# Track frame offsets:
#	150
#	12234
#	24465
#	38654
#	55958
#	73669
#	88916
#	101782
#	115512
#	132617
#	151838
#	167772
#	186317
#	200768
#	217789
#	237305
#	253160
#	275512
#	298110
#	313711
#	336933
#
# Disc length: 4753 seconds
#
# Revision: 1
# Processed by: cddbd v1.5.2PL0 Copyright (c) Steve Scherf et al.
# Submitted via: audiograbber 1.83.01
#
DISCID=3c128f15
DTITLE=Ghostrider - Konzert
DYEAR=1900
DGENRE=
TTITLE0=Folsom Prison Blues
TTITLE1=Ring Of Fire
TTITLE2=Heart Of Gold
TTITLE3=Super Girl
TTITLE4=lieder
TTITLE5=Cats In The Cradle
TTITLE6=Cry Cry cry
TTITLE7=Ich will wieder zurück auf die Straße
TTITLE8=Gänselieschen
TTITLE9=Knockin On Heaven's Door
TTITLE10=Tage wie diese
TTITLE11=Hier kommt Alex
TTITLE12=Everyme And Everyyou
TTITLE13=Ein Kompliment
TTITLE14=Paradies
TTITLE15=Über den wolken
TTITLE16=Aloa He
TTITLE17=Terra Titanic
TTITLE18=Klinklang9
TTITLE19=Am Fenster - Vorstellung der Band
TTITLE20=Heroes
EXTD=
EXTT0=
EXTT1=
EXTT2=
EXTT3=
EXTT4=
EXTT5=
EXTT6=
EXTT7=
EXTT8=
EXTT9=
EXTT10=
EXTT11=
EXTT12=
EXTT13=
EXTT14=
EXTT15=
EXTT16=
EXTT17=
EXTT18=
EXTT19=
EXTT20=
PLAYORDER=
